<svg version="1.1" id="mscgen_js-svg-79740f1d-72c9-427f-82af-3e8ede9ff607" class="mscgen_js-svg-79740f1d-72c9-427f-82af-3e8ede9ff607" xmlns="http://www.w3.org/2000/svg" xmlns:xlink="http://www.w3.org/1999/xlink" width="912" height="1224.1749877929688" viewBox="0 0 912 1224.1749877929688"><desc id="mscgen_js-svg-79740f1d-72c9-427f-82af-3e8ede9ff607__msc_source">

# Generated by mscgen_js - https://sverweij.github.io/mscgen_js
hscale="1.4",
wordwraparcs=true;

LC, LS, SDK, WebInterface;

SDK note SDK : AppIoT is already provisioned with Endpoint IDs before registration;

LC &gt;&gt; LS : POST /rd?ep=epname&amp;b=UQ;
LC &lt;&lt; LS : ACK 2.01 /rd/5a3f;
LC =&gt; LC : "If MAX_TRANSMIT_WAIT, Client goes offline";


WebInterface note WebInterface : Administrator clicks read/write multiple times on the interface.;
WebInterface &gt;&gt; SDK : Message;

SDK &gt;&gt; LS : GET /3303/0/5400;

LS &gt;&gt; LC : GET /3303/0/5400;
LC -x LS :;

LS =&gt; LS: Timeout;

LS =&gt; SDK : Notify Client is offline;

SDK =&gt; SDK : Start Queuing;
WebInterface &gt;&gt; SDK : Message;
WebInterface &gt;&gt; SDK : Message;
WebInterface &gt;&gt; SDK : Message;
WebInterface &gt;&gt; SDK : Message;
SDK box SDK : "Queue = [GET PUT POST PUT]";

LC Note LC : Registration Update: Either because lifetime about to expire or because previous observation triggers it;

LC &gt;&gt; LS : POST /rd/5a3f;
LC &lt;&lt; LS : ACK 2.04 /rd/5a3f;

LS =&gt; SDK : Notify Client is online;

SDK note SDK : "Flush Queue";

SDK &gt;&gt; LS : GET /3303/0/5400;

LS &gt;&gt; LC : GET /3303/0/5400;

LC &gt;&gt; LS : ACK 2.05 Content: 43;


LS &gt;&gt; SDK : ACK 2.05 Content: 43;


LC =&gt; LC : "if MAX_TRANSMIT_WAIT, go offline";


...;
</desc><defs><style type="text/css">svg.mscgen_js-svg-79740f1d-72c9-427f-82af-3e8ede9ff607{font-family:Helvetica,sans-serif;font-size:12px;font-weight:normal;font-style:normal;text-decoration:none;background-color:white;stroke:black;stroke-width:2;color:black}.mscgen_js-svg-79740f1d-72c9-427f-82af-3e8ede9ff607 path, .mscgen_js-svg-79740f1d-72c9-427f-82af-3e8ede9ff607 rect{fill:none;color:black;stroke:black}.mscgen_js-svg-79740f1d-72c9-427f-82af-3e8ede9ff607 .label-text-background{fill:white;stroke:white;stroke-width:0}.mscgen_js-svg-79740f1d-72c9-427f-82af-3e8ede9ff607 .bglayer{fill:white;stroke:white;stroke-width:0}.mscgen_js-svg-79740f1d-72c9-427f-82af-3e8ede9ff607 line{stroke:black}.mscgen_js-svg-79740f1d-72c9-427f-82af-3e8ede9ff607 .return, .mscgen_js-svg-79740f1d-72c9-427f-82af-3e8ede9ff607 .comment{stroke-dasharray:5,3}.mscgen_js-svg-79740f1d-72c9-427f-82af-3e8ede9ff607 .inline_expression_divider{stroke-dasharray:10,5}.mscgen_js-svg-79740f1d-72c9-427f-82af-3e8ede9ff607 text{color:inherit;stroke:none;text-anchor:middle}.mscgen_js-svg-79740f1d-72c9-427f-82af-3e8ede9ff607 text.entity-text{text-decoration:underline}.mscgen_js-svg-79740f1d-72c9-427f-82af-3e8ede9ff607 text.anchor-start{text-anchor:start}.mscgen_js-svg-79740f1d-72c9-427f-82af-3e8ede9ff607 .arrow-marker{overflow:visible}.mscgen_js-svg-79740f1d-72c9-427f-82af-3e8ede9ff607 .arrow-style{stroke-width:1}.mscgen_js-svg-79740f1d-72c9-427f-82af-3e8ede9ff607 .arcrow, .mscgen_js-svg-79740f1d-72c9-427f-82af-3e8ede9ff607 .arcrowomit, .mscgen_js-svg-79740f1d-72c9-427f-82af-3e8ede9ff607 .emphasised{stroke-linecap:butt}.mscgen_js-svg-79740f1d-72c9-427f-82af-3e8ede9ff607 .arcrowomit{stroke-dasharray:2,2;}.mscgen_js-svg-79740f1d-72c9-427f-82af-3e8ede9ff607 .box, .mscgen_js-svg-79740f1d-72c9-427f-82af-3e8ede9ff607 .entity{fill:white;stroke-linejoin:round}.mscgen_js-svg-79740f1d-72c9-427f-82af-3e8ede9ff607 .inherit{stroke:inherit;color:inherit}.mscgen_js-svg-79740f1d-72c9-427f-82af-3e8ede9ff607 .inherit-fill{fill:inherit}.mscgen_js-svg-79740f1d-72c9-427f-82af-3e8ede9ff607 .watermark{stroke:black;color:black;fill:black;font-size:48pt;font-weight:bold;opacity:0.14}.mscgen_js-svg-79740f1d-72c9-427f-82af-3e8ede9ff607 text.entity-text{text-decoration:none}.mscgen_js-svg-79740f1d-72c9-427f-82af-3e8ede9ff607 .entity{stroke:none;}.mscgen_js-svg-79740f1d-72c9-427f-82af-3e8ede9ff607 line,.mscgen_js-svg-79740f1d-72c9-427f-82af-3e8ede9ff607 rect,.mscgen_js-svg-79740f1d-72c9-427f-82af-3e8ede9ff607 path{stroke-width:1px}.mscgen_js-svg-79740f1d-72c9-427f-82af-3e8ede9ff607 .arrow-style{stroke-width:2;}.mscgen_js-svg-79740f1d-72c9-427f-82af-3e8ede9ff607 .inline_expression,.mscgen_js-svg-79740f1d-72c9-427f-82af-3e8ede9ff607 .inline_expression_divider,.mscgen_js-svg-79740f1d-72c9-427f-82af-3e8ede9ff607 .inline_expression_label{stroke-width: 1px}</style><marker orient="auto" id="mscgen_js-svg-79740f1d-72c9-427f-82af-3e8ede9ff607callback-black" class="arrow-marker" viewBox="0 0 10 10" refX="9" refY="3" markerUnits="strokeWidth" markerWidth="10" markerHeight="10"><path d="M 1,1 l 8,2 l-8,2" class="arrow-style" style="stroke-dasharray:100,1;stroke:black"></path></marker><marker orient="auto" id="mscgen_js-svg-79740f1d-72c9-427f-82af-3e8ede9ff607callback-l-black" class="arrow-marker" viewBox="0 0 10 10" refX="9" refY="3" markerUnits="strokeWidth" markerWidth="10" markerHeight="10"><path d="M17,1 l-8,2 l 8,2" class="arrow-style" style="stroke-dasharray:100,1;stroke:black"></path></marker><marker orient="auto" id="mscgen_js-svg-79740f1d-72c9-427f-82af-3e8ede9ff607lost-black" class="arrow-marker" viewBox="0 0 10 10" refX="9" refY="3" markerUnits="strokeWidth" markerWidth="10" markerHeight="10"><path d="M7,0 l5,6 M7,6 l5,-6" class="arrow-style" style="stroke-dasharray:100,1;stroke:black"></path></marker><marker orient="auto" id="mscgen_js-svg-79740f1d-72c9-427f-82af-3e8ede9ff607method-black" class="arrow-marker" viewBox="0 0 10 10" refX="9" refY="3" markerUnits="strokeWidth" markerWidth="10" markerHeight="10"><polygon points="1,1  9,3  1,5" class="arrow-style" stroke="black" fill="black"></polygon></marker><marker orient="auto" id="mscgen_js-svg-79740f1d-72c9-427f-82af-3e8ede9ff607method-l-black" class="arrow-marker" viewBox="0 0 10 10" refX="9" refY="3" markerUnits="strokeWidth" markerWidth="10" markerHeight="10"><polygon points="17,1 9,3 17,5" class="arrow-style" stroke="black" fill="black"></polygon></marker><g id="mscgen_js-svg-79740f1d-72c9-427f-82af-3e8ede9ff607__defs"><g id="mscgen_js-svg-79740f1d-72c9-427f-82af-3e8ede9ff607entities"><g id="mscgen_js-svg-79740f1d-72c9-427f-82af-3e8ede9ff607LC"><rect width="140" height="38" class="entity"></rect><g><text x="70" y="22.5" class="entity-text "><tspan>LC</tspan></text></g></g><g id="mscgen_js-svg-79740f1d-72c9-427f-82af-3e8ede9ff607LS"><rect width="140" height="38" x="224" class="entity"></rect><g><text x="294" y="22.5" class="entity-text "><tspan>LS</tspan></text></g></g><g id="mscgen_js-svg-79740f1d-72c9-427f-82af-3e8ede9ff607SDK"><rect width="140" height="38" x="448" class="entity"></rect><g><text x="518" y="22.5" class="entity-text "><tspan>SDK</tspan></text></g></g><g id="mscgen_js-svg-79740f1d-72c9-427f-82af-3e8ede9ff607WebInterface"><rect width="140" height="38" x="672" class="entity"></rect><g><text x="742" y="22.5" class="entity-text "><tspan>WebInterface</tspan></text></g></g></g><g id="mscgen_js-svg-79740f1d-72c9-427f-82af-3e8ede9ff607arcrow"><line x1="70" y1="-19" x2="70" y2="19" class="arcrow"></line><line x1="294" y1="-19" x2="294" y2="19" class="arcrow"></line><line x1="518" y1="-19" x2="518" y2="19" class="arcrow"></line><line x1="742" y1="-19" x2="742" y2="19" class="arcrow"></line></g><g id="mscgen_js-svg-79740f1d-72c9-427f-82af-3e8ede9ff6070_0"><path d="M410,-17l207,0 l0,9 l9,0 m-9,-9 l9,9 l0,25 l-216,0 l0,-34 z" class="box note"></path><g><text x="518" y="-4" class="box-text note-text "><tspan>AppIoT is already provisioned</tspan></text><text x="518" y="11" class="box-text note-text "><tspan>with Endpoint IDs before registration</tspan></text></g></g><g id="mscgen_js-svg-79740f1d-72c9-427f-82af-3e8ede9ff607arcrow_0"><line x1="70" y1="-19" x2="70" y2="19" class="arcrow"></line><line x1="294" y1="-19" x2="294" y2="19" class="arcrow"></line><line x1="518" y1="-19" x2="518" y2="19" class="arcrow"></line><line x1="742" y1="-19" x2="742" y2="19" class="arcrow"></line></g><g id="mscgen_js-svg-79740f1d-72c9-427f-82af-3e8ede9ff6071_0"><line x1="70" y1="0" x2="294" y2="0" class="arc directional return" style="stroke:black" marker-end="url(#mscgen_js-svg-79740f1d-72c9-427f-82af-3e8ede9ff607callback-black)"></line><g><rect width="160.078125" height="14" x="101.953125" y="-15.5" class="label-text-background"></rect><text x="182" y="-4.5" class="directional-text return-text "><tspan>POST /rd?ep=epname&amp;b=UQ</tspan></text></g></g><g id="mscgen_js-svg-79740f1d-72c9-427f-82af-3e8ede9ff607arcrow_1"><line x1="70" y1="-19" x2="70" y2="19" class="arcrow"></line><line x1="294" y1="-19" x2="294" y2="19" class="arcrow"></line><line x1="518" y1="-19" x2="518" y2="19" class="arcrow"></line><line x1="742" y1="-19" x2="742" y2="19" class="arcrow"></line></g><g id="mscgen_js-svg-79740f1d-72c9-427f-82af-3e8ede9ff6072_0"><line x1="294" y1="0" x2="70" y2="0" class="arc directional return" style="stroke:black" marker-end="url(#mscgen_js-svg-79740f1d-72c9-427f-82af-3e8ede9ff607callback-black)"></line><g><rect width="95.390625" height="14" x="134.296875" y="-15.5" class="label-text-background"></rect><text x="182" y="-4.5" class="directional-text return-text "><tspan>ACK 2.01 /rd/5a3f</tspan></text></g></g><g id="mscgen_js-svg-79740f1d-72c9-427f-82af-3e8ede9ff607arcrow_2"><line x1="70" y1="-19" x2="70" y2="19" class="arcrow"></line><line x1="294" y1="-19" x2="294" y2="19" class="arcrow"></line><line x1="518" y1="-19" x2="518" y2="19" class="arcrow"></line><line x1="742" y1="-19" x2="742" y2="19" class="arcrow"></line></g><g id="mscgen_js-svg-79740f1d-72c9-427f-82af-3e8ede9ff6073_0"><path d="M70,-7.6 C182,-7.4 182,15.2 70,15.2 " class="arc directional method" style="stroke:black" marker-end="url(#mscgen_js-svg-79740f1d-72c9-427f-82af-3e8ede9ff607method-black)"></path><g><rect width="6.65625" height="14" x="73" y="-53.59375" class="label-text-background"></rect><text x="73" y="-42.6" class="directional-text method-text anchor-start "><tspan>If</tspan></text><rect width="195.609375" height="14" x="73" y="-38.59375" class="label-text-background"></rect><text x="73" y="-27.6" class="directional-text method-text anchor-start "><tspan>MAX_TRANSMIT_WAIT, Client goes</tspan></text><rect width="32.015625" height="14" x="73" y="-23.59375" class="label-text-background"></rect><text x="73" y="-12.600000000000001" class="directional-text method-text anchor-start "><tspan>offline</tspan></text></g></g><g id="mscgen_js-svg-79740f1d-72c9-427f-82af-3e8ede9ff607arcrow_3"><line x1="70" y1="-36.396873474121094" x2="70" y2="36.396873474121094" class="arcrow"></line><line x1="294" y1="-36.396873474121094" x2="294" y2="36.396873474121094" class="arcrow"></line><line x1="518" y1="-36.396873474121094" x2="518" y2="36.396873474121094" class="arcrow"></line><line x1="742" y1="-36.396873474121094" x2="742" y2="36.396873474121094" class="arcrow"></line></g><g id="mscgen_js-svg-79740f1d-72c9-427f-82af-3e8ede9ff6074_0"><path d="M634,-17l207,0 l0,9 l9,0 m-9,-9 l9,9 l0,25 l-216,0 l0,-34 z" class="box note"></path><g><text x="742" y="-4" class="box-text note-text "><tspan>Administrator clicks read/write</tspan></text><text x="742" y="11" class="box-text note-text "><tspan>multiple times on the interface.</tspan></text></g></g><g id="mscgen_js-svg-79740f1d-72c9-427f-82af-3e8ede9ff607arcrow_4"><line x1="70" y1="-19" x2="70" y2="19" class="arcrow"></line><line x1="294" y1="-19" x2="294" y2="19" class="arcrow"></line><line x1="518" y1="-19" x2="518" y2="19" class="arcrow"></line><line x1="742" y1="-19" x2="742" y2="19" class="arcrow"></line></g><g id="mscgen_js-svg-79740f1d-72c9-427f-82af-3e8ede9ff6075_0"><line x1="742" y1="0" x2="518" y2="0" class="arc directional return" style="stroke:black" marker-end="url(#mscgen_js-svg-79740f1d-72c9-427f-82af-3e8ede9ff607callback-black)"></line><g><rect width="48.6875" height="14" x="605.640625" y="-15.5" class="label-text-background"></rect><text x="630" y="-4.5" class="directional-text return-text "><tspan>Message</tspan></text></g></g><g id="mscgen_js-svg-79740f1d-72c9-427f-82af-3e8ede9ff607arcrow_5"><line x1="70" y1="-19" x2="70" y2="19" class="arcrow"></line><line x1="294" y1="-19" x2="294" y2="19" class="arcrow"></line><line x1="518" y1="-19" x2="518" y2="19" class="arcrow"></line><line x1="742" y1="-19" x2="742" y2="19" class="arcrow"></line></g><g id="mscgen_js-svg-79740f1d-72c9-427f-82af-3e8ede9ff6076_0"><line x1="518" y1="0" x2="294" y2="0" class="arc directional return" style="stroke:black" marker-end="url(#mscgen_js-svg-79740f1d-72c9-427f-82af-3e8ede9ff607callback-black)"></line><g><rect width="98.0625" height="14" x="356.953125" y="-15.5" class="label-text-background"></rect><text x="406" y="-4.5" class="directional-text return-text "><tspan>GET /3303/0/5400</tspan></text></g></g><g id="mscgen_js-svg-79740f1d-72c9-427f-82af-3e8ede9ff607arcrow_6"><line x1="70" y1="-19" x2="70" y2="19" class="arcrow"></line><line x1="294" y1="-19" x2="294" y2="19" class="arcrow"></line><line x1="518" y1="-19" x2="518" y2="19" class="arcrow"></line><line x1="742" y1="-19" x2="742" y2="19" class="arcrow"></line></g><g id="mscgen_js-svg-79740f1d-72c9-427f-82af-3e8ede9ff6077_0"><line x1="294" y1="0" x2="70" y2="0" class="arc directional return" style="stroke:black" marker-end="url(#mscgen_js-svg-79740f1d-72c9-427f-82af-3e8ede9ff607callback-black)"></line><g><rect width="98.0625" height="14" x="132.953125" y="-15.5" class="label-text-background"></rect><text x="182" y="-4.5" class="directional-text return-text "><tspan>GET /3303/0/5400</tspan></text></g></g><g id="mscgen_js-svg-79740f1d-72c9-427f-82af-3e8ede9ff607arcrow_7"><line x1="70" y1="-19" x2="70" y2="19" class="arcrow"></line><line x1="294" y1="-19" x2="294" y2="19" class="arcrow"></line><line x1="518" y1="-19" x2="518" y2="19" class="arcrow"></line><line x1="742" y1="-19" x2="742" y2="19" class="arcrow"></line></g><g id="mscgen_js-svg-79740f1d-72c9-427f-82af-3e8ede9ff6078_0"><line x1="70" y1="0" x2="238" y2="0" class="arc directional lost" style="stroke:black" marker-end="url(#mscgen_js-svg-79740f1d-72c9-427f-82af-3e8ede9ff607lost-black)"></line><g></g></g><g id="mscgen_js-svg-79740f1d-72c9-427f-82af-3e8ede9ff607arcrow_8"><line x1="70" y1="-19" x2="70" y2="19" class="arcrow"></line><line x1="294" y1="-19" x2="294" y2="19" class="arcrow"></line><line x1="518" y1="-19" x2="518" y2="19" class="arcrow"></line><line x1="742" y1="-19" x2="742" y2="19" class="arcrow"></line></g><g id="mscgen_js-svg-79740f1d-72c9-427f-82af-3e8ede9ff6079_0"><path d="M294,-7.6 C406,-7.4 406,15.2 294,15.2 " class="arc directional method" style="stroke:black" marker-end="url(#mscgen_js-svg-79740f1d-72c9-427f-82af-3e8ede9ff607method-black)"></path><g><rect width="42.90625" height="14" x="297" y="-23.59375" class="label-text-background"></rect><text x="297" y="-12.600000000000001" class="directional-text method-text anchor-start "><tspan>Timeout</tspan></text></g></g><g id="mscgen_js-svg-79740f1d-72c9-427f-82af-3e8ede9ff607arcrow_9"><line x1="70" y1="-21.396873474121094" x2="70" y2="21.396873474121094" class="arcrow"></line><line x1="294" y1="-21.396873474121094" x2="294" y2="21.396873474121094" class="arcrow"></line><line x1="518" y1="-21.396873474121094" x2="518" y2="21.396873474121094" class="arcrow"></line><line x1="742" y1="-21.396873474121094" x2="742" y2="21.396873474121094" class="arcrow"></line></g><g id="mscgen_js-svg-79740f1d-72c9-427f-82af-3e8ede9ff60710_0"><line x1="294" y1="0" x2="518" y2="0" class="arc directional method" style="stroke:black" marker-end="url(#mscgen_js-svg-79740f1d-72c9-427f-82af-3e8ede9ff607method-black)"></line><g><rect width="112.03125" height="14" x="349.96875" y="-15.5" class="label-text-background"></rect><text x="406" y="-4.5" class="directional-text method-text "><tspan>Notify Client is offline</tspan></text></g></g><g id="mscgen_js-svg-79740f1d-72c9-427f-82af-3e8ede9ff607arcrow_10"><line x1="70" y1="-19" x2="70" y2="19" class="arcrow"></line><line x1="294" y1="-19" x2="294" y2="19" class="arcrow"></line><line x1="518" y1="-19" x2="518" y2="19" class="arcrow"></line><line x1="742" y1="-19" x2="742" y2="19" class="arcrow"></line></g><g id="mscgen_js-svg-79740f1d-72c9-427f-82af-3e8ede9ff60711_0"><path d="M518,-7.6 C630,-7.4 630,15.2 518,15.2 " class="arc directional method" style="stroke:black" marker-end="url(#mscgen_js-svg-79740f1d-72c9-427f-82af-3e8ede9ff607method-black)"></path><g><rect width="74.03125" height="14" x="521" y="-23.59375" class="label-text-background"></rect><text x="521" y="-12.600000000000001" class="directional-text method-text anchor-start "><tspan>Start Queuing</tspan></text></g></g><g id="mscgen_js-svg-79740f1d-72c9-427f-82af-3e8ede9ff607arcrow_11"><line x1="70" y1="-21.396873474121094" x2="70" y2="21.396873474121094" class="arcrow"></line><line x1="294" y1="-21.396873474121094" x2="294" y2="21.396873474121094" class="arcrow"></line><line x1="518" y1="-21.396873474121094" x2="518" y2="21.396873474121094" class="arcrow"></line><line x1="742" y1="-21.396873474121094" x2="742" y2="21.396873474121094" class="arcrow"></line></g><g id="mscgen_js-svg-79740f1d-72c9-427f-82af-3e8ede9ff60712_0"><line x1="742" y1="0" x2="518" y2="0" class="arc directional return" style="stroke:black" marker-end="url(#mscgen_js-svg-79740f1d-72c9-427f-82af-3e8ede9ff607callback-black)"></line><g><rect width="48.6875" height="14" x="605.640625" y="-15.5" class="label-text-background"></rect><text x="630" y="-4.5" class="directional-text return-text "><tspan>Message</tspan></text></g></g><g id="mscgen_js-svg-79740f1d-72c9-427f-82af-3e8ede9ff607arcrow_12"><line x1="70" y1="-19" x2="70" y2="19" class="arcrow"></line><line x1="294" y1="-19" x2="294" y2="19" class="arcrow"></line><line x1="518" y1="-19" x2="518" y2="19" class="arcrow"></line><line x1="742" y1="-19" x2="742" y2="19" class="arcrow"></line></g><g id="mscgen_js-svg-79740f1d-72c9-427f-82af-3e8ede9ff60713_0"><line x1="742" y1="0" x2="518" y2="0" class="arc directional return" style="stroke:black" marker-end="url(#mscgen_js-svg-79740f1d-72c9-427f-82af-3e8ede9ff607callback-black)"></line><g><rect width="48.6875" height="14" x="605.640625" y="-15.5" class="label-text-background"></rect><text x="630" y="-4.5" class="directional-text return-text "><tspan>Message</tspan></text></g></g><g id="mscgen_js-svg-79740f1d-72c9-427f-82af-3e8ede9ff607arcrow_13"><line x1="70" y1="-19" x2="70" y2="19" class="arcrow"></line><line x1="294" y1="-19" x2="294" y2="19" class="arcrow"></line><line x1="518" y1="-19" x2="518" y2="19" class="arcrow"></line><line x1="742" y1="-19" x2="742" y2="19" class="arcrow"></line></g><g id="mscgen_js-svg-79740f1d-72c9-427f-82af-3e8ede9ff60714_0"><line x1="742" y1="0" x2="518" y2="0" class="arc directional return" style="stroke:black" marker-end="url(#mscgen_js-svg-79740f1d-72c9-427f-82af-3e8ede9ff607callback-black)"></line><g><rect width="48.6875" height="14" x="605.640625" y="-15.5" class="label-text-background"></rect><text x="630" y="-4.5" class="directional-text return-text "><tspan>Message</tspan></text></g></g><g id="mscgen_js-svg-79740f1d-72c9-427f-82af-3e8ede9ff607arcrow_14"><line x1="70" y1="-19" x2="70" y2="19" class="arcrow"></line><line x1="294" y1="-19" x2="294" y2="19" class="arcrow"></line><line x1="518" y1="-19" x2="518" y2="19" class="arcrow"></line><line x1="742" y1="-19" x2="742" y2="19" class="arcrow"></line></g><g id="mscgen_js-svg-79740f1d-72c9-427f-82af-3e8ede9ff60715_0"><line x1="742" y1="0" x2="518" y2="0" class="arc directional return" style="stroke:black" marker-end="url(#mscgen_js-svg-79740f1d-72c9-427f-82af-3e8ede9ff607callback-black)"></line><g><rect width="48.6875" height="14" x="605.640625" y="-15.5" class="label-text-background"></rect><text x="630" y="-4.5" class="directional-text return-text "><tspan>Message</tspan></text></g></g><g id="mscgen_js-svg-79740f1d-72c9-427f-82af-3e8ede9ff607arcrow_15"><line x1="70" y1="-19" x2="70" y2="19" class="arcrow"></line><line x1="294" y1="-19" x2="294" y2="19" class="arcrow"></line><line x1="518" y1="-19" x2="518" y2="19" class="arcrow"></line><line x1="742" y1="-19" x2="742" y2="19" class="arcrow"></line></g><g id="mscgen_js-svg-79740f1d-72c9-427f-82af-3e8ede9ff60716_0"><rect width="216" height="34" x="410" y="-17" class="box"></rect><g><text x="518" y="3.5" class="box-text "><tspan>Queue = [GET PUT POST PUT]</tspan></text></g></g><g id="mscgen_js-svg-79740f1d-72c9-427f-82af-3e8ede9ff607arcrow_16"><line x1="70" y1="-19" x2="70" y2="19" class="arcrow"></line><line x1="294" y1="-19" x2="294" y2="19" class="arcrow"></line><line x1="518" y1="-19" x2="518" y2="19" class="arcrow"></line><line x1="742" y1="-19" x2="742" y2="19" class="arcrow"></line></g><g id="mscgen_js-svg-79740f1d-72c9-427f-82af-3e8ede9ff60717_0"><path d="M-38,-24l207,0 l0,9 l9,0 m-9,-9 l9,9 l0,39 l-216,0 l0,-48 z" class="box note"></path><g><text x="70" y="-11.5" class="box-text note-text "><tspan>Registration Update: Either</tspan></text><text x="70" y="3.5" class="box-text note-text "><tspan>because lifetime about to expire or</tspan></text><text x="70" y="18.5" class="box-text note-text "><tspan>because previous observation triggers it</tspan></text></g></g><g id="mscgen_js-svg-79740f1d-72c9-427f-82af-3e8ede9ff607arcrow_17"><line x1="70" y1="-26" x2="70" y2="26" class="arcrow"></line><line x1="294" y1="-26" x2="294" y2="26" class="arcrow"></line><line x1="518" y1="-26" x2="518" y2="26" class="arcrow"></line><line x1="742" y1="-26" x2="742" y2="26" class="arcrow"></line></g><g id="mscgen_js-svg-79740f1d-72c9-427f-82af-3e8ede9ff60718_0"><line x1="70" y1="0" x2="294" y2="0" class="arc directional return" style="stroke:black" marker-end="url(#mscgen_js-svg-79740f1d-72c9-427f-82af-3e8ede9ff607callback-black)"></line><g><rect width="76.6875" height="14" x="143.640625" y="-15.5" class="label-text-background"></rect><text x="182" y="-4.5" class="directional-text return-text "><tspan>POST /rd/5a3f</tspan></text></g></g><g id="mscgen_js-svg-79740f1d-72c9-427f-82af-3e8ede9ff607arcrow_18"><line x1="70" y1="-19" x2="70" y2="19" class="arcrow"></line><line x1="294" y1="-19" x2="294" y2="19" class="arcrow"></line><line x1="518" y1="-19" x2="518" y2="19" class="arcrow"></line><line x1="742" y1="-19" x2="742" y2="19" class="arcrow"></line></g><g id="mscgen_js-svg-79740f1d-72c9-427f-82af-3e8ede9ff60719_0"><line x1="294" y1="0" x2="70" y2="0" class="arc directional return" style="stroke:black" marker-end="url(#mscgen_js-svg-79740f1d-72c9-427f-82af-3e8ede9ff607callback-black)"></line><g><rect width="95.390625" height="14" x="134.296875" y="-15.5" class="label-text-background"></rect><text x="182" y="-4.5" class="directional-text return-text "><tspan>ACK 2.04 /rd/5a3f</tspan></text></g></g><g id="mscgen_js-svg-79740f1d-72c9-427f-82af-3e8ede9ff607arcrow_19"><line x1="70" y1="-19" x2="70" y2="19" class="arcrow"></line><line x1="294" y1="-19" x2="294" y2="19" class="arcrow"></line><line x1="518" y1="-19" x2="518" y2="19" class="arcrow"></line><line x1="742" y1="-19" x2="742" y2="19" class="arcrow"></line></g><g id="mscgen_js-svg-79740f1d-72c9-427f-82af-3e8ede9ff60720_0"><line x1="294" y1="0" x2="518" y2="0" class="arc directional method" style="stroke:black" marker-end="url(#mscgen_js-svg-79740f1d-72c9-427f-82af-3e8ede9ff607method-black)"></line><g><rect width="112.046875" height="14" x="349.96875" y="-15.5" class="label-text-background"></rect><text x="406" y="-4.5" class="directional-text method-text "><tspan>Notify Client is online</tspan></text></g></g><g id="mscgen_js-svg-79740f1d-72c9-427f-82af-3e8ede9ff607arcrow_20"><line x1="70" y1="-19" x2="70" y2="19" class="arcrow"></line><line x1="294" y1="-19" x2="294" y2="19" class="arcrow"></line><line x1="518" y1="-19" x2="518" y2="19" class="arcrow"></line><line x1="742" y1="-19" x2="742" y2="19" class="arcrow"></line></g><g id="mscgen_js-svg-79740f1d-72c9-427f-82af-3e8ede9ff60721_0"><path d="M410,-17l207,0 l0,9 l9,0 m-9,-9 l9,9 l0,25 l-216,0 l0,-34 z" class="box note"></path><g><text x="518" y="3.5" class="box-text note-text "><tspan>Flush Queue</tspan></text></g></g><g id="mscgen_js-svg-79740f1d-72c9-427f-82af-3e8ede9ff607arcrow_21"><line x1="70" y1="-19" x2="70" y2="19" class="arcrow"></line><line x1="294" y1="-19" x2="294" y2="19" class="arcrow"></line><line x1="518" y1="-19" x2="518" y2="19" class="arcrow"></line><line x1="742" y1="-19" x2="742" y2="19" class="arcrow"></line></g><g id="mscgen_js-svg-79740f1d-72c9-427f-82af-3e8ede9ff60722_0"><line x1="518" y1="0" x2="294" y2="0" class="arc directional return" style="stroke:black" marker-end="url(#mscgen_js-svg-79740f1d-72c9-427f-82af-3e8ede9ff607callback-black)"></line><g><rect width="98.0625" height="14" x="356.953125" y="-15.5" class="label-text-background"></rect><text x="406" y="-4.5" class="directional-text return-text "><tspan>GET /3303/0/5400</tspan></text></g></g><g id="mscgen_js-svg-79740f1d-72c9-427f-82af-3e8ede9ff607arcrow_22"><line x1="70" y1="-19" x2="70" y2="19" class="arcrow"></line><line x1="294" y1="-19" x2="294" y2="19" class="arcrow"></line><line x1="518" y1="-19" x2="518" y2="19" class="arcrow"></line><line x1="742" y1="-19" x2="742" y2="19" class="arcrow"></line></g><g id="mscgen_js-svg-79740f1d-72c9-427f-82af-3e8ede9ff60723_0"><line x1="294" y1="0" x2="70" y2="0" class="arc directional return" style="stroke:black" marker-end="url(#mscgen_js-svg-79740f1d-72c9-427f-82af-3e8ede9ff607callback-black)"></line><g><rect width="98.0625" height="14" x="132.953125" y="-15.5" class="label-text-background"></rect><text x="182" y="-4.5" class="directional-text return-text "><tspan>GET /3303/0/5400</tspan></text></g></g><g id="mscgen_js-svg-79740f1d-72c9-427f-82af-3e8ede9ff607arcrow_23"><line x1="70" y1="-19" x2="70" y2="19" class="arcrow"></line><line x1="294" y1="-19" x2="294" y2="19" class="arcrow"></line><line x1="518" y1="-19" x2="518" y2="19" class="arcrow"></line><line x1="742" y1="-19" x2="742" y2="19" class="arcrow"></line></g><g id="mscgen_js-svg-79740f1d-72c9-427f-82af-3e8ede9ff60724_0"><line x1="70" y1="0" x2="294" y2="0" class="arc directional return" style="stroke:black" marker-end="url(#mscgen_js-svg-79740f1d-72c9-427f-82af-3e8ede9ff607callback-black)"></line><g><rect width="116.734375" height="14" x="123.625" y="-15.5" class="label-text-background"></rect><text x="182" y="-4.5" class="directional-text return-text "><tspan>ACK 2.05 Content: 43</tspan></text></g></g><g id="mscgen_js-svg-79740f1d-72c9-427f-82af-3e8ede9ff607arcrow_24"><line x1="70" y1="-19" x2="70" y2="19" class="arcrow"></line><line x1="294" y1="-19" x2="294" y2="19" class="arcrow"></line><line x1="518" y1="-19" x2="518" y2="19" class="arcrow"></line><line x1="742" y1="-19" x2="742" y2="19" class="arcrow"></line></g><g id="mscgen_js-svg-79740f1d-72c9-427f-82af-3e8ede9ff60725_0"><line x1="294" y1="0" x2="518" y2="0" class="arc directional return" style="stroke:black" marker-end="url(#mscgen_js-svg-79740f1d-72c9-427f-82af-3e8ede9ff607callback-black)"></line><g><rect width="116.734375" height="14" x="347.625" y="-15.5" class="label-text-background"></rect><text x="406" y="-4.5" class="directional-text return-text "><tspan>ACK 2.05 Content: 43</tspan></text></g></g><g id="mscgen_js-svg-79740f1d-72c9-427f-82af-3e8ede9ff607arcrow_25"><line x1="70" y1="-19" x2="70" y2="19" class="arcrow"></line><line x1="294" y1="-19" x2="294" y2="19" class="arcrow"></line><line x1="518" y1="-19" x2="518" y2="19" class="arcrow"></line><line x1="742" y1="-19" x2="742" y2="19" class="arcrow"></line></g><g id="mscgen_js-svg-79740f1d-72c9-427f-82af-3e8ede9ff60726_0"><path d="M70,-7.6 C182,-7.4 182,15.2 70,15.2 " class="arc directional method" style="stroke:black" marker-end="url(#mscgen_js-svg-79740f1d-72c9-427f-82af-3e8ede9ff607method-black)"></path><g><rect width="6" height="14" x="73" y="-38.59375" class="label-text-background"></rect><text x="73" y="-27.6" class="directional-text method-text anchor-start "><tspan>if</tspan></text><rect width="184.265625" height="14" x="73" y="-23.59375" class="label-text-background"></rect><text x="73" y="-12.600000000000001" class="directional-text method-text anchor-start "><tspan>MAX_TRANSMIT_WAIT, go offline</tspan></text></g></g><g id="mscgen_js-svg-79740f1d-72c9-427f-82af-3e8ede9ff607arcrow_26"><line x1="70" y1="-28.896873474121094" x2="70" y2="28.896873474121094" class="arcrow"></line><line x1="294" y1="-28.896873474121094" x2="294" y2="28.896873474121094" class="arcrow"></line><line x1="518" y1="-28.896873474121094" x2="518" y2="28.896873474121094" class="arcrow"></line><line x1="742" y1="-28.896873474121094" x2="742" y2="28.896873474121094" class="arcrow"></line></g><g id="mscgen_js-svg-79740f1d-72c9-427f-82af-3e8ede9ff60727_0"><g id="mscgen_js-svg-79740f1d-72c9-427f-82af-3e8ede9ff60727_0_lbl"></g></g><g id="mscgen_js-svg-79740f1d-72c9-427f-82af-3e8ede9ff607arcrow_27"><line x1="70" y1="-19" x2="70" y2="19" class="arcrowomit"></line><line x1="294" y1="-19" x2="294" y2="19" class="arcrowomit"></line><line x1="518" y1="-19" x2="518" y2="19" class="arcrowomit"></line><line x1="742" y1="-19" x2="742" y2="19" class="arcrowomit"></line></g></g></defs><g id="mscgen_js-svg-79740f1d-72c9-427f-82af-3e8ede9ff607__body" transform="translate(50,3) scale(1,1)"><g id="mscgen_js-svg-79740f1d-72c9-427f-82af-3e8ede9ff607__background"><rect width="912" height="1224.1749877929688" x="-50" y="-3" class="bglayer"></rect></g><g id="mscgen_js-svg-79740f1d-72c9-427f-82af-3e8ede9ff607__arcspanlayer"></g><g id="mscgen_js-svg-79740f1d-72c9-427f-82af-3e8ede9ff607__lifelinelayer"><use x="0" y="57" xmlns:xlink="http://www.w3.org/1999/xlink" xlink:href="#mscgen_js-svg-79740f1d-72c9-427f-82af-3e8ede9ff607arcrow"></use><use x="0" y="95" xmlns:xlink="http://www.w3.org/1999/xlink" xlink:href="#mscgen_js-svg-79740f1d-72c9-427f-82af-3e8ede9ff607arcrow_0"></use><use x="0" y="133" xmlns:xlink="http://www.w3.org/1999/xlink" xlink:href="#mscgen_js-svg-79740f1d-72c9-427f-82af-3e8ede9ff607arcrow_1"></use><use x="0" y="171" xmlns:xlink="http://www.w3.org/1999/xlink" xlink:href="#mscgen_js-svg-79740f1d-72c9-427f-82af-3e8ede9ff607arcrow_2"></use><use x="0" y="226.3968734741211" xmlns:xlink="http://www.w3.org/1999/xlink" xlink:href="#mscgen_js-svg-79740f1d-72c9-427f-82af-3e8ede9ff607arcrow_3"></use><use x="0" y="281.7937469482422" xmlns:xlink="http://www.w3.org/1999/xlink" xlink:href="#mscgen_js-svg-79740f1d-72c9-427f-82af-3e8ede9ff607arcrow_4"></use><use x="0" y="319.7937469482422" xmlns:xlink="http://www.w3.org/1999/xlink" xlink:href="#mscgen_js-svg-79740f1d-72c9-427f-82af-3e8ede9ff607arcrow_5"></use><use x="0" y="357.7937469482422" xmlns:xlink="http://www.w3.org/1999/xlink" xlink:href="#mscgen_js-svg-79740f1d-72c9-427f-82af-3e8ede9ff607arcrow_6"></use><use x="0" y="395.7937469482422" xmlns:xlink="http://www.w3.org/1999/xlink" xlink:href="#mscgen_js-svg-79740f1d-72c9-427f-82af-3e8ede9ff607arcrow_7"></use><use x="0" y="433.7937469482422" xmlns:xlink="http://www.w3.org/1999/xlink" xlink:href="#mscgen_js-svg-79740f1d-72c9-427f-82af-3e8ede9ff607arcrow_8"></use><use x="0" y="474.1906204223633" xmlns:xlink="http://www.w3.org/1999/xlink" xlink:href="#mscgen_js-svg-79740f1d-72c9-427f-82af-3e8ede9ff607arcrow_9"></use><use x="0" y="514.5874938964844" xmlns:xlink="http://www.w3.org/1999/xlink" xlink:href="#mscgen_js-svg-79740f1d-72c9-427f-82af-3e8ede9ff607arcrow_10"></use><use x="0" y="554.9843673706055" xmlns:xlink="http://www.w3.org/1999/xlink" xlink:href="#mscgen_js-svg-79740f1d-72c9-427f-82af-3e8ede9ff607arcrow_11"></use><use x="0" y="595.3812408447266" xmlns:xlink="http://www.w3.org/1999/xlink" xlink:href="#mscgen_js-svg-79740f1d-72c9-427f-82af-3e8ede9ff607arcrow_12"></use><use x="0" y="633.3812408447266" xmlns:xlink="http://www.w3.org/1999/xlink" xlink:href="#mscgen_js-svg-79740f1d-72c9-427f-82af-3e8ede9ff607arcrow_13"></use><use x="0" y="671.3812408447266" xmlns:xlink="http://www.w3.org/1999/xlink" xlink:href="#mscgen_js-svg-79740f1d-72c9-427f-82af-3e8ede9ff607arcrow_14"></use><use x="0" y="709.3812408447266" xmlns:xlink="http://www.w3.org/1999/xlink" xlink:href="#mscgen_js-svg-79740f1d-72c9-427f-82af-3e8ede9ff607arcrow_15"></use><use x="0" y="747.3812408447266" xmlns:xlink="http://www.w3.org/1999/xlink" xlink:href="#mscgen_js-svg-79740f1d-72c9-427f-82af-3e8ede9ff607arcrow_16"></use><use x="0" y="792.3812408447266" xmlns:xlink="http://www.w3.org/1999/xlink" xlink:href="#mscgen_js-svg-79740f1d-72c9-427f-82af-3e8ede9ff607arcrow_17"></use><use x="0" y="837.3812408447266" xmlns:xlink="http://www.w3.org/1999/xlink" xlink:href="#mscgen_js-svg-79740f1d-72c9-427f-82af-3e8ede9ff607arcrow_18"></use><use x="0" y="875.3812408447266" xmlns:xlink="http://www.w3.org/1999/xlink" xlink:href="#mscgen_js-svg-79740f1d-72c9-427f-82af-3e8ede9ff607arcrow_19"></use><use x="0" y="913.3812408447266" xmlns:xlink="http://www.w3.org/1999/xlink" xlink:href="#mscgen_js-svg-79740f1d-72c9-427f-82af-3e8ede9ff607arcrow_20"></use><use x="0" y="951.3812408447266" xmlns:xlink="http://www.w3.org/1999/xlink" xlink:href="#mscgen_js-svg-79740f1d-72c9-427f-82af-3e8ede9ff607arcrow_21"></use><use x="0" y="989.3812408447266" xmlns:xlink="http://www.w3.org/1999/xlink" xlink:href="#mscgen_js-svg-79740f1d-72c9-427f-82af-3e8ede9ff607arcrow_22"></use><use x="0" y="1027.3812408447266" xmlns:xlink="http://www.w3.org/1999/xlink" xlink:href="#mscgen_js-svg-79740f1d-72c9-427f-82af-3e8ede9ff607arcrow_23"></use><use x="0" y="1065.3812408447266" xmlns:xlink="http://www.w3.org/1999/xlink" xlink:href="#mscgen_js-svg-79740f1d-72c9-427f-82af-3e8ede9ff607arcrow_24"></use><use x="0" y="1103.3812408447266" xmlns:xlink="http://www.w3.org/1999/xlink" xlink:href="#mscgen_js-svg-79740f1d-72c9-427f-82af-3e8ede9ff607arcrow_25"></use><use x="0" y="1151.2781143188477" xmlns:xlink="http://www.w3.org/1999/xlink" xlink:href="#mscgen_js-svg-79740f1d-72c9-427f-82af-3e8ede9ff607arcrow_26"></use><use x="0" y="1199.1749877929688" xmlns:xlink="http://www.w3.org/1999/xlink" xlink:href="#mscgen_js-svg-79740f1d-72c9-427f-82af-3e8ede9ff607arcrow_27"></use></g><g id="mscgen_js-svg-79740f1d-72c9-427f-82af-3e8ede9ff607__sequencelayer"><use x="0" y="0" xmlns:xlink="http://www.w3.org/1999/xlink" xlink:href="#mscgen_js-svg-79740f1d-72c9-427f-82af-3e8ede9ff607entities"></use><use x="0" y="133" xmlns:xlink="http://www.w3.org/1999/xlink" xlink:href="#mscgen_js-svg-79740f1d-72c9-427f-82af-3e8ede9ff6071_0"><title>LC &gt;&gt; LS</title></use><use x="0" y="171" xmlns:xlink="http://www.w3.org/1999/xlink" xlink:href="#mscgen_js-svg-79740f1d-72c9-427f-82af-3e8ede9ff6072_0"><title>LS &gt;&gt; LC</title></use><use x="0" y="226.3968734741211" xmlns:xlink="http://www.w3.org/1999/xlink" xlink:href="#mscgen_js-svg-79740f1d-72c9-427f-82af-3e8ede9ff6073_0"><title>LC =&gt; LC</title></use><use x="0" y="319.7937469482422" xmlns:xlink="http://www.w3.org/1999/xlink" xlink:href="#mscgen_js-svg-79740f1d-72c9-427f-82af-3e8ede9ff6075_0"><title>WebInterface &gt;&gt; SDK</title></use><use x="0" y="357.7937469482422" xmlns:xlink="http://www.w3.org/1999/xlink" xlink:href="#mscgen_js-svg-79740f1d-72c9-427f-82af-3e8ede9ff6076_0"><title>SDK &gt;&gt; LS</title></use><use x="0" y="395.7937469482422" xmlns:xlink="http://www.w3.org/1999/xlink" xlink:href="#mscgen_js-svg-79740f1d-72c9-427f-82af-3e8ede9ff6077_0"><title>LS &gt;&gt; LC</title></use><use x="0" y="433.7937469482422" xmlns:xlink="http://www.w3.org/1999/xlink" xlink:href="#mscgen_js-svg-79740f1d-72c9-427f-82af-3e8ede9ff6078_0"><title>LC -x LS</title></use><use x="0" y="474.1906204223633" xmlns:xlink="http://www.w3.org/1999/xlink" xlink:href="#mscgen_js-svg-79740f1d-72c9-427f-82af-3e8ede9ff6079_0"><title>LS =&gt; LS</title></use><use x="0" y="514.5874938964844" xmlns:xlink="http://www.w3.org/1999/xlink" xlink:href="#mscgen_js-svg-79740f1d-72c9-427f-82af-3e8ede9ff60710_0"><title>LS =&gt; SDK</title></use><use x="0" y="554.9843673706055" xmlns:xlink="http://www.w3.org/1999/xlink" xlink:href="#mscgen_js-svg-79740f1d-72c9-427f-82af-3e8ede9ff60711_0"><title>SDK =&gt; SDK</title></use><use x="0" y="595.3812408447266" xmlns:xlink="http://www.w3.org/1999/xlink" xlink:href="#mscgen_js-svg-79740f1d-72c9-427f-82af-3e8ede9ff60712_0"><title>WebInterface &gt;&gt; SDK</title></use><use x="0" y="633.3812408447266" xmlns:xlink="http://www.w3.org/1999/xlink" xlink:href="#mscgen_js-svg-79740f1d-72c9-427f-82af-3e8ede9ff60713_0"><title>WebInterface &gt;&gt; SDK</title></use><use x="0" y="671.3812408447266" xmlns:xlink="http://www.w3.org/1999/xlink" xlink:href="#mscgen_js-svg-79740f1d-72c9-427f-82af-3e8ede9ff60714_0"><title>WebInterface &gt;&gt; SDK</title></use><use x="0" y="709.3812408447266" xmlns:xlink="http://www.w3.org/1999/xlink" xlink:href="#mscgen_js-svg-79740f1d-72c9-427f-82af-3e8ede9ff60715_0"><title>WebInterface &gt;&gt; SDK</title></use><use x="0" y="837.3812408447266" xmlns:xlink="http://www.w3.org/1999/xlink" xlink:href="#mscgen_js-svg-79740f1d-72c9-427f-82af-3e8ede9ff60718_0"><title>LC &gt;&gt; LS</title></use><use x="0" y="875.3812408447266" xmlns:xlink="http://www.w3.org/1999/xlink" xlink:href="#mscgen_js-svg-79740f1d-72c9-427f-82af-3e8ede9ff60719_0"><title>LS &gt;&gt; LC</title></use><use x="0" y="913.3812408447266" xmlns:xlink="http://www.w3.org/1999/xlink" xlink:href="#mscgen_js-svg-79740f1d-72c9-427f-82af-3e8ede9ff60720_0"><title>LS =&gt; SDK</title></use><use x="0" y="989.3812408447266" xmlns:xlink="http://www.w3.org/1999/xlink" xlink:href="#mscgen_js-svg-79740f1d-72c9-427f-82af-3e8ede9ff60722_0"><title>SDK &gt;&gt; LS</title></use><use x="0" y="1027.3812408447266" xmlns:xlink="http://www.w3.org/1999/xlink" xlink:href="#mscgen_js-svg-79740f1d-72c9-427f-82af-3e8ede9ff60723_0"><title>LS &gt;&gt; LC</title></use><use x="0" y="1065.3812408447266" xmlns:xlink="http://www.w3.org/1999/xlink" xlink:href="#mscgen_js-svg-79740f1d-72c9-427f-82af-3e8ede9ff60724_0"><title>LC &gt;&gt; LS</title></use><use x="0" y="1103.3812408447266" xmlns:xlink="http://www.w3.org/1999/xlink" xlink:href="#mscgen_js-svg-79740f1d-72c9-427f-82af-3e8ede9ff60725_0"><title>LS &gt;&gt; SDK</title></use><use x="0" y="1151.2781143188477" xmlns:xlink="http://www.w3.org/1999/xlink" xlink:href="#mscgen_js-svg-79740f1d-72c9-427f-82af-3e8ede9ff60726_0"><title>LC =&gt; LC</title></use><use x="0" y="1199.1749877929688" xmlns:xlink="http://www.w3.org/1999/xlink" xlink:href="#mscgen_js-svg-79740f1d-72c9-427f-82af-3e8ede9ff60727_0"></use></g><g id="mscgen_js-svg-79740f1d-72c9-427f-82af-3e8ede9ff607__notelayer"><use x="0" y="95" xmlns:xlink="http://www.w3.org/1999/xlink" xlink:href="#mscgen_js-svg-79740f1d-72c9-427f-82af-3e8ede9ff6070_0"></use><use x="0" y="281.7937469482422" xmlns:xlink="http://www.w3.org/1999/xlink" xlink:href="#mscgen_js-svg-79740f1d-72c9-427f-82af-3e8ede9ff6074_0"></use><use x="0" y="747.3812408447266" xmlns:xlink="http://www.w3.org/1999/xlink" xlink:href="#mscgen_js-svg-79740f1d-72c9-427f-82af-3e8ede9ff60716_0"></use><use x="0" y="792.3812408447266" xmlns:xlink="http://www.w3.org/1999/xlink" xlink:href="#mscgen_js-svg-79740f1d-72c9-427f-82af-3e8ede9ff60717_0"></use><use x="0" y="951.3812408447266" xmlns:xlink="http://www.w3.org/1999/xlink" xlink:href="#mscgen_js-svg-79740f1d-72c9-427f-82af-3e8ede9ff60721_0"></use></g><g id="mscgen_js-svg-79740f1d-72c9-427f-82af-3e8ede9ff607__watermark"></g></g></svg>